HIERARCHY
ROOT Hips
{
	OFFSET 0.000000 71.427986 0.000000
	CHANNELS 6 Xposition Yposition Zposition Xrotation Yrotation Zrotation
	JOINT Pelvis
	{
		OFFSET 0.000000 0.000000 0.000000
		CHANNELS 3 Xrotation Yrotation Zrotation
		JOINT LeftUpLeg
		{
			OFFSET 6.797100 -2.508499 -1.318700
			CHANNELS 3 Xrotation Yrotation Zrotation
			JOINT LeftLeg
			{
				OFFSET 0.069008 -29.241863 0.690200
				CHANNELS 3 Xrotation Yrotation Zrotation
				JOINT LeftFoot
				{
					OFFSET -0.069008 -29.568123 -0.266800
					CHANNELS 3 Xrotation Yrotation Zrotation
					JOINT LeftToeBase
					{
						OFFSET 3.145500 -8.631000 16.059900
						CHANNELS 3 Xrotation Yrotation Zrotation
						End Site
						{
							OFFSET 0.000000 18.501587 0.000000
						}
					}
				}
			}
			JOINT Left_ShortSleeve
			{
				OFFSET 0.265923 -10.480953 1.153800
				CHANNELS 3 Xrotation Yrotation Zrotation
				End Site
				{
					OFFSET 1.725763 19.823879 0.000000
				}
			}
		}
		JOINT RightUpLeg
		{
			OFFSET -6.797100 -2.508499 -1.318700
			CHANNELS 3 Xrotation Yrotation Zrotation
			JOINT RightLeg
			{
				OFFSET -0.082453 -29.241932 0.688000
				CHANNELS 3 Xrotation Yrotation Zrotation
				JOINT RightFoot
				{
					OFFSET 0.082453 -29.568058 -0.264600
					CHANNELS 3 Xrotation Yrotation Zrotation
					JOINT RightToeBase
					{
						OFFSET -3.115300 -8.682800 16.113400
						CHANNELS 3 Xrotation Yrotation Zrotation
						End Site
						{
							OFFSET 0.000000 18.567114 0.000000
						}
					}
				}
			}
			JOINT Right_ShortSleeve
			{
				OFFSET -0.265923 -10.480953 1.153800
				CHANNELS 3 Xrotation Yrotation Zrotation
				End Site
				{
					OFFSET -1.725766 19.823910 0.000000
				}
			}
		}
	}
	JOINT Spine
	{
		OFFSET 0.000000 13.368103 0.470500
		CHANNELS 3 Xrotation Yrotation Zrotation
		JOINT Spine1
		{
			OFFSET 0.147000 13.837402 0.538800
			CHANNELS 3 Xrotation Yrotation Zrotation
			JOINT Spine2
			{
				OFFSET 0.168000 16.242897 -1.435500
				CHANNELS 3 Xrotation Yrotation Zrotation
				JOINT Neck
				{
					OFFSET 0.217200 18.631500 -1.679100
					CHANNELS 3 Xrotation Yrotation Zrotation
					JOINT Head
					{
						OFFSET 0.000000 6.599396 1.385900
						CHANNELS 3 Xrotation Yrotation Zrotation
						JOINT Hat
						{
							OFFSET -0.532200 27.220596 -10.096100
							CHANNELS 3 Xrotation Yrotation Zrotation
							End Site
							{
								OFFSET 0.000000 22.029861 0.000000
							}
						}
						JOINT HairD
						{
							OFFSET -10.777400 17.437393 -1.325900
							CHANNELS 3 Xrotation Yrotation Zrotation
							JOINT HairD1
							{
								OFFSET -3.290299 -11.051193 1.062200
								CHANNELS 3 Xrotation Yrotation Zrotation
								End Site
								{
									OFFSET 0.000000 11.579437 0.000000
								}
							}
						}
						JOINT HairB
						{
							OFFSET -10.777400 17.437393 1.467900
							CHANNELS 3 Xrotation Yrotation Zrotation
							JOINT HairB1
							{
								OFFSET -1.561200 -12.956299 3.590200
								CHANNELS 3 Xrotation Yrotation Zrotation
								End Site
								{
									OFFSET 0.000000 13.534866 0.000000
								}
							}
						}
						JOINT HairA
						{
							OFFSET 9.713100 17.437393 1.467900
							CHANNELS 3 Xrotation Yrotation Zrotation
							JOINT HairA1
							{
								OFFSET 1.561200 -12.956299 3.590200
								CHANNELS 3 Xrotation Yrotation Zrotation
								End Site
								{
									OFFSET 0.000000 13.534866 0.000000
								}
							}
						}
						JOINT HairC
						{
							OFFSET 9.713100 17.437393 -1.325900
							CHANNELS 3 Xrotation Yrotation Zrotation
							JOINT HairC1
							{
								OFFSET 3.290300 -11.051193 1.062200
								CHANNELS 3 Xrotation Yrotation Zrotation
								End Site
								{
									OFFSET 0.000000 11.579437 0.000000
								}
							}
						}
					}
				}
				JOINT LeftShoulder
				{
					OFFSET 5.101800 15.108002 -2.763700
					CHANNELS 3 Xrotation Yrotation Zrotation
					JOINT LeftArm
					{
						OFFSET 9.825497 2.506317 -1.597400
						CHANNELS 3 Xrotation Yrotation Zrotation
						JOINT LeftForeArm
						{
							OFFSET 21.966244 0.000000 0.000000
							CHANNELS 3 Xrotation Yrotation Zrotation
							JOINT LeftHand
							{
								OFFSET 33.879036 0.000000 0.000000
								CHANNELS 3 Xrotation Yrotation Zrotation
								JOINT LeftHandThumb1
								{
									OFFSET 6.715286 -2.359680 3.363841
									CHANNELS 3 Xrotation Yrotation Zrotation
									JOINT LeftHandThumb2
									{
										OFFSET 2.507072 -1.447464 1.447461
										CHANNELS 3 Xrotation Yrotation Zrotation
										JOINT LeftHandThumb3
										{
											OFFSET 2.898338 -1.673355 1.673357
											CHANNELS 3 Xrotation Yrotation Zrotation
											End Site
											{
												OFFSET -0.295959 3.727692 -0.131651
											}
										}
									}
								}
								JOINT LeftHandIndex1
								{
									OFFSET 14.190811 -0.254547 3.840278
									CHANNELS 3 Xrotation Yrotation Zrotation
									JOINT LeftHandIndex2
									{
										OFFSET 3.551727 0.000000 -0.000000
										CHANNELS 3 Xrotation Yrotation Zrotation
										JOINT LeftHandIndex3
										{
											OFFSET 2.894196 0.000000 0.000000
											CHANNELS 3 Xrotation Yrotation Zrotation
											End Site
											{
												OFFSET -1.000603 2.690872 0.366626
											}
										}
									}
								}
								JOINT LeftHandMiddle1
								{
									OFFSET 13.776489 0.000000 0.000000
									CHANNELS 3 Xrotation Yrotation Zrotation
									JOINT LeftHandMiddle2
									{
										OFFSET 3.438232 0.000000 0.000000
										CHANNELS 3 Xrotation Yrotation Zrotation
										JOINT LeftHandMiddle3
										{
											OFFSET 3.691551 0.000000 0.000000
											CHANNELS 3 Xrotation Yrotation Zrotation
											End Site
											{
												OFFSET -1.082298 3.499527 0.457670
											}
										}
									}
								}
								JOINT LeftHandRing1
								{
									OFFSET 13.966164 -0.268127 -3.067488
									CHANNELS 3 Xrotation Yrotation Zrotation
									JOINT LeftHandRing2
									{
										OFFSET 3.162567 0.000000 0.000000
										CHANNELS 3 Xrotation Yrotation Zrotation
										JOINT LeftHandRing3
										{
											OFFSET 3.324348 0.000000 0.000000
											CHANNELS 3 Xrotation Yrotation Zrotation
											End Site
											{
												OFFSET -0.861900 3.184998 0.405154
											}
										}
									}
								}
								JOINT LeftHandPinky1
								{
									OFFSET 13.131393 -0.168503 -5.746925
									CHANNELS 3 Xrotation Yrotation Zrotation
									JOINT LeftHandPinky2
									{
										OFFSET 2.849182 0.000000 0.000000
										CHANNELS 3 Xrotation Yrotation Zrotation
										JOINT LeftHandPinky3
										{
											OFFSET 2.805038 0.000000 0.000000
											CHANNELS 3 Xrotation Yrotation Zrotation
											End Site
											{
												OFFSET -0.882500 2.642609 0.325652
											}
										}
									}
								}
							}
							JOINT Left_Sleeve
							{
								OFFSET 6.592125 -0.646545 0.805568
								CHANNELS 3 Xrotation Yrotation Zrotation
								End Site
								{
									OFFSET -0.000179 20.275787 -0.000000
								}
							}
						}
					}
				}
				JOINT RightShoulder
				{
					OFFSET -5.731700 15.108002 -2.763700
					CHANNELS 3 Xrotation Yrotation Zrotation
					JOINT RightArm
					{
						OFFSET -9.825497 2.506317 -1.597400
						CHANNELS 3 Xrotation Yrotation Zrotation
						JOINT RightForeArm
						{
							OFFSET -21.966242 0.000000 0.000000
							CHANNELS 3 Xrotation Yrotation Zrotation
							JOINT RightHand
							{
								OFFSET -33.879032 0.000000 0.000000
								CHANNELS 3 Xrotation Yrotation Zrotation
								JOINT RightHandThumb1
								{
									OFFSET -6.715286 -2.359680 3.363841
									CHANNELS 3 Xrotation Yrotation Zrotation
									JOINT RightHandThumb2
									{
										OFFSET -2.507072 -1.447464 1.447461
										CHANNELS 3 Xrotation Yrotation Zrotation
										JOINT RightHandThumb3
										{
											OFFSET -2.898338 -1.673355 1.673357
											CHANNELS 3 Xrotation Yrotation Zrotation
											End Site
											{
												OFFSET 0.295959 3.727692 -0.131651
											}
										}
									}
								}
								JOINT RightHandIndex1
								{
									OFFSET -14.190811 -0.254547 3.840278
									CHANNELS 3 Xrotation Yrotation Zrotation
									JOINT RightHandIndex2
									{
										OFFSET -3.551727 0.000000 -0.000000
										CHANNELS 3 Xrotation Yrotation Zrotation
										JOINT RightHandIndex3
										{
											OFFSET -2.894196 0.000000 0.000000
											CHANNELS 3 Xrotation Yrotation Zrotation
											End Site
											{
												OFFSET 1.000603 2.690872 0.366626
											}
										}
									}
								}
								JOINT RightHandMiddle1
								{
									OFFSET -13.776489 0.000000 0.000000
									CHANNELS 3 Xrotation Yrotation Zrotation
									JOINT RightHandMiddle2
									{
										OFFSET -3.438232 0.000000 0.000000
										CHANNELS 3 Xrotation Yrotation Zrotation
										JOINT RightHandMiddle3
										{
											OFFSET -3.691551 0.000000 0.000000
											CHANNELS 3 Xrotation Yrotation Zrotation
											End Site
											{
												OFFSET 1.082298 3.499527 0.457670
											}
										}
									}
								}
								JOINT RightHandRing1
								{
									OFFSET -13.966164 -0.268127 -3.067488
									CHANNELS 3 Xrotation Yrotation Zrotation
									JOINT RightHandRing2
									{
										OFFSET -3.162567 0.000000 0.000000
										CHANNELS 3 Xrotation Yrotation Zrotation
										JOINT RightHandRing3
										{
											OFFSET -3.324348 0.000000 0.000000
											CHANNELS 3 Xrotation Yrotation Zrotation
											End Site
											{
												OFFSET 0.861900 3.184998 0.405154
											}
										}
									}
								}
								JOINT RightHandPinky1
								{
									OFFSET -13.131393 -0.168503 -5.746925
									CHANNELS 3 Xrotation Yrotation Zrotation
									JOINT RightHandPinky2
									{
										OFFSET -2.849182 0.000000 0.000000
										CHANNELS 3 Xrotation Yrotation Zrotation
										JOINT RightHandPinky3
										{
											OFFSET -2.805038 0.000000 0.000000
											CHANNELS 3 Xrotation Yrotation Zrotation
											End Site
											{
												OFFSET 0.882500 2.642609 0.325652
											}
										}
									}
								}
							}
							JOINT Right_Sleeve
							{
								OFFSET -6.592125 -0.646545 0.805568
								CHANNELS 3 Xrotation Yrotation Zrotation
								End Site
								{
									OFFSET 0.000179 20.275787 -0.000000
								}
							}
						}
					}
				}
				JOINT Bind_Right_JacketString
				{
					OFFSET -3.534800 11.969597 7.200700
					CHANNELS 3 Xrotation Yrotation Zrotation
					JOINT Bind_Right_JacketString1
					{
						OFFSET -0.319900 -6.102600 2.794100
						CHANNELS 3 Xrotation Yrotation Zrotation
						End Site
						{
							OFFSET 0.000000 6.719452 0.000000
						}
					}
				}
				JOINT Bind_Left_JacketString
				{
					OFFSET 2.904800 11.969597 7.200700
					CHANNELS 3 Xrotation Yrotation Zrotation
					JOINT Bind_Left_JacketString1
					{
						OFFSET 0.364800 -5.904503 3.186800
						CHANNELS 3 Xrotation Yrotation Zrotation
						End Site
						{
							OFFSET 0.000000 6.719513 0.000000
						}
					}
				}
				JOINT HairE
				{
					OFFSET 5.915200 17.612701 -11.592200
					CHANNELS 3 Xrotation Yrotation Zrotation
					JOINT HairE1
					{
						OFFSET 0.289200 -7.171898 -1.284500
						CHANNELS 3 Xrotation Yrotation Zrotation
						End Site
						{
							OFFSET 0.000000 7.291756 0.000000
						}
					}
				}
				JOINT HairF
				{
					OFFSET -0.864800 17.612701 -11.592200
					CHANNELS 3 Xrotation Yrotation Zrotation
					JOINT HairF1
					{
						OFFSET 0.000000 -14.087097 -2.127501
						CHANNELS 3 Xrotation Yrotation Zrotation
						End Site
						{
							OFFSET 0.000000 14.246841 0.000000
						}
					}
				}
				JOINT HairG
				{
					OFFSET -8.087700 17.612701 -11.592200
					CHANNELS 3 Xrotation Yrotation Zrotation
					JOINT HairG1
					{
						OFFSET -0.293600 -6.081398 -0.910100
						CHANNELS 3 Xrotation Yrotation Zrotation
						End Site
						{
							OFFSET 0.000000 6.156120 0.000000
						}
					}
				}
			}
		}
	}
	JOINT Pouch
	{
		OFFSET 0.000000 4.394501 10.847300
		CHANNELS 3 Xrotation Yrotation Zrotation
		End Site
		{
			OFFSET 0.000000 21.880577 0.000000
		}
	}
	JOINT Bag
	{
		OFFSET -13.229000 4.813004 -0.593300
		CHANNELS 3 Xrotation Yrotation Zrotation
		End Site
		{
			OFFSET 0.000000 21.880577 0.000000
		}
	}
	JOINT OccupyGuyFacialAnim_Joint
	{
		OFFSET 1.000000 -70.206398 -1.655000
		CHANNELS 3 Xrotation Yrotation Zrotation
		End Site
		{
			OFFSET 0.000000 21.880577 0.000000
		}
	}
}
MOTION
Frames: 4
Frame Time: 0.016667
36.787476 67.219475 20.550835 -10.162372 -57.607236 -11.040980 0.000001 -0.000001 -0.000000 -11.416695 13.434099 5.334870 42.925680 -9.303689 1.398592 -27.679956 14.397960 4.290185 -0.000000 -0.000002 0.000000 -0.000001 0.000001 -0.000000 -15.202237 15.115050 -13.957807 51.518095 -13.079391 -10.172582 14.613593 -3.256016 29.356095 0.000001 0.000000 0.000002 0.000001 -0.000001 -0.000003 9.168181 8.911652 -0.024731 2.556081 17.404584 -2.385635 3.099510 13.576345 -1.746532 -0.834493 -4.108943 0.255298 1.539943 -45.055941 4.111455 -0.000000 -0.000001 -0.000000 -0.000000 -0.000001 -0.000000 -0.000000 -0.000001 -0.000000 -0.000000 -0.000001 -0.000000 -0.000000 -0.000001 0.000000 -0.000000 -0.000001 -0.000000 -0.000000 -0.000001 0.000000 -0.000000 -0.000001 -0.000000 -0.000000 -0.000001 -0.000000 -6.510684 -24.283954 -29.301512 -16.491700 27.629852 -48.402784 0.000013 -37.042356 0.000011 20.414548 12.547352 -11.679938 -0.367418 1.022221 8.846102 11.332633 25.661863 5.956430 -0.000003 -0.000001 0.000001 -3.147028 -1.008765 -32.685440 0.795794 2.949875 -30.188862 -0.000000 0.000000 -0.000000 1.080603 5.663175 -36.569994 0.703195 2.784819 -28.337850 0.000003 -0.000000 -0.000001 2.638192 7.725003 -36.880467 0.871337 3.075895 -31.625886 0.000000 0.000002 0.000002 4.773548 10.152484 -39.332058 0.944670 3.191726 -32.967308 -0.000002 -0.000001 -0.000001 0.000001 -0.000002 0.000000 16.094123 -29.062581 21.606091 17.231232 -22.622063 41.644818 0.000053 113.407525 -0.000048 50.459027 7.307177 26.799243 11.446980 0.444920 -2.639164 0.868422 -5.095137 -5.270574 -0.000000 -0.000001 0.000000 -1.101630 2.714057 12.099559 0.231082 -1.450219 18.106212 -0.000003 -0.000000 -0.000001 -0.590495 -0.253857 13.946824 0.529559 -2.158720 27.563012 0.000003 -0.000001 0.000001 0.152622 -3.304635 16.160612 1.052581 -2.950896 39.255908 0.000007 -0.000000 -0.000002 1.396629 -6.662543 20.820583 0.310333 -1.673157 21.012872 0.000002 0.000000 0.000000 0.000002 0.000001 0.000002 -0.000000 -0.000001 0.000000 -0.000000 -0.000001 0.000000 -0.000000 -0.000001 0.000000 -0.000000 -0.000001 0.000000 -0.000000 -0.000001 0.000000 -0.000000 -0.000001 0.000000 -0.000000 -0.000001 0.000000 -0.000000 -0.000001 0.000000 -0.000000 -0.000001 0.000000 -0.000000 -0.000001 0.000000 0.000001 -0.000001 -0.000000 0.000001 -0.000001 -0.000000 0.000001 -0.000001 -0.000000 
36.831383 67.169144 21.401255 -10.752967 -56.836760 -11.488916 -0.000000 -0.000000 -0.000000 -10.402633 13.333432 4.373233 42.993145 -9.774354 1.683211 -28.338942 14.577198 5.138501 0.000000 0.000002 -0.000000 0.000000 -0.000002 -0.000000 -16.778057 16.620550 -12.473706 55.313310 -11.882272 -10.015493 13.894753 -0.987807 26.691555 0.000002 0.000000 -0.000001 -0.000001 0.000000 -0.000000 9.613238 7.978681 -0.122732 2.662957 17.145945 -2.401211 3.209018 13.582538 -1.840704 -0.835035 -4.107088 0.327522 1.616706 -45.330145 4.399506 0.000000 0.000001 -0.000001 0.000000 0.000001 -0.000001 0.000000 0.000001 -0.000001 0.000000 0.000001 -0.000000 -0.000000 0.000001 -0.000000 0.000000 0.000001 -0.000000 -0.000000 0.000001 -0.000000 0.000000 0.000001 -0.000001 0.000000 0.000001 -0.000001 -6.690961 -24.917015 -29.325748 -17.150497 26.242816 -47.937744 -0.000003 -37.261400 -0.000006 18.651153 12.125994 -10.193062 -0.303179 1.156289 8.901289 11.336650 25.654605 5.977715 0.000001 -0.000001 -0.000004 -3.164693 -0.956350 -33.003590 0.813128 2.979424 -30.524044 0.000001 -0.000002 -0.000001 1.100513 5.692204 -36.934637 0.718681 2.813291 -28.654816 0.000000 0.000002 0.000003 2.669900 7.741920 -37.250971 0.890056 3.106053 -31.973222 0.000001 0.000000 -0.000001 4.816363 10.146131 -39.734093 0.963090 3.219909 -33.296622 -0.000000 0.000000 -0.000002 -0.000000 0.000001 -0.000000 16.288816 -29.166728 21.993795 17.892147 -24.268782 42.118730 0.000008 113.885461 -0.000004 41.063832 5.287867 26.351252 11.448280 0.442783 -2.640250 0.869864 -5.099413 -5.271812 -0.000002 -0.000003 0.000001 -1.117753 2.690257 12.294177 0.236139 -1.465560 18.304391 -0.000006 -0.000001 0.000000 -0.596857 -0.274210 14.142335 0.537010 -2.172940 27.760242 0.000003 0.000001 -0.000001 0.155904 -3.319402 16.357166 1.061199 -2.961378 39.422957 -0.000001 0.000000 -0.000000 1.410551 -6.670720 21.018338 0.316099 -1.688119 21.209797 -0.000001 0.000001 0.000001 -0.000001 0.000001 0.000003 -0.000000 -0.000002 0.000000 -0.000001 0.000000 0.000000 -0.000000 -0.000002 0.000000 -0.000000 -0.000002 0.000000 -0.000000 -0.000002 0.000000 -0.000001 0.000000 0.000000 -0.000000 -0.000002 0.000000 -0.000000 -0.000002 0.000000 -0.000000 -0.000002 0.000000 -0.000001 0.000000 0.000000 -0.000000 -0.000000 -0.000000 -0.000000 -0.000000 -0.000000 -0.000000 -0.000000 -0.000000 
36.861927 67.188004 22.238726 -11.204276 -55.844204 -11.919410 0.000000 0.000003 -0.000000 -9.309294 13.215453 3.598717 42.747637 -9.959410 1.936316 -28.751900 14.238867 5.798255 -0.000000 -0.000002 0.000000 -0.000001 -0.000003 -0.000000 -18.197939 17.678152 -10.615623 58.439051 -10.501313 -9.646882 12.172900 2.186979 23.608861 0.000001 -0.000002 0.000000 -0.000001 0.000000 0.000000 10.030076 6.932279 -0.030947 2.778478 16.848642 -2.408986 3.327782 13.548340 -1.925066 -0.836524 -4.091355 0.390945 1.663311 -45.506613 4.655208 -0.000000 0.000000 -0.000000 -0.000000 0.000000 -0.000000 -0.000000 0.000000 -0.000000 -0.000000 0.000000 -0.000000 -0.000000 0.000002 -0.000000 -0.000000 0.000000 -0.000000 -0.000000 0.000002 -0.000000 -0.000000 0.000000 -0.000000 -0.000000 0.000000 -0.000000 -6.858135 -25.585235 -29.281240 -17.849564 24.630004 -47.582024 -0.000002 -37.102376 -0.000000 17.190198 11.684767 -8.623610 -0.239669 1.289023 8.955657 11.340612 25.647442 5.998809 -0.000001 0.000001 -0.000000 -3.181879 -0.904403 -33.318435 0.830461 3.008578 -30.855735 -0.000000 0.000000 0.000002 1.120394 5.720804 -37.295538 0.734147 2.841392 -28.968509 0.000000 0.000002 -0.000001 2.701354 7.758486 -37.617690 0.908758 3.135774 -32.316951 -0.000003 -0.000001 -0.000003 4.858573 10.139634 -40.131944 0.981469 3.247678 -33.622525 -0.000003 0.000001 0.000003 0.000000 -0.000004 0.000002 16.428046 -29.286133 22.283878 18.343095 -25.660563 42.553052 0.000083 114.043976 -0.000092 34.092514 4.326345 26.246906 11.449752 0.440213 -2.641551 0.872416 -5.108700 -5.273692 0.000001 0.000002 -0.000001 -1.093844 2.717390 12.021031 0.229010 -1.443887 18.024094 -0.000002 0.000000 0.000000 -0.586987 -0.249519 13.867917 0.526563 -2.152980 27.483372 -0.000005 0.000000 0.000001 0.150485 -3.295847 16.081651 1.039535 -2.934865 39.001521 0.000002 -0.000001 0.000001 1.388036 -6.651376 20.741461 0.308007 -1.667114 20.933198 -0.000001 0.000001 -0.000001 0.000004 0.000000 0.000000 -0.000001 0.000000 -0.000000 0.000000 0.000000 0.000000 -0.000001 0.000000 -0.000000 -0.000001 0.000000 -0.000000 -0.000001 0.000000 -0.000000 0.000000 0.000000 0.000000 -0.000001 0.000000 -0.000000 -0.000001 0.000000 -0.000000 -0.000001 0.000000 -0.000000 0.000000 0.000000 0.000000 0.000000 0.000003 -0.000000 0.000000 0.000003 -0.000000 0.000000 0.000003 -0.000000 
36.872566 67.257797 23.061596 -11.412175 -54.588976 -12.223100 0.000000 0.000000 -0.000000 -8.232754 13.082127 3.059630 42.270528 -9.916064 2.099095 -28.963274 13.340310 6.301898 0.000000 -0.000000 -0.000000 0.000000 -0.000000 -0.000001 -19.541491 18.267817 -8.513716 60.830122 -9.266264 -9.116735 10.310976 6.086797 20.503939 0.000002 0.000001 -0.000002 0.000000 0.000000 -0.000001 10.370339 5.717271 0.212500 2.886333 16.500543 -2.402981 3.439225 13.460941 -1.993052 -0.825260 -4.058133 0.451980 1.734945 -45.565223 4.903154 -0.000000 0.000000 -0.000001 -0.000000 0.000000 -0.000001 -0.000000 0.000000 -0.000001 -0.000000 0.000000 -0.000000 -0.000001 -0.000001 0.000001 -0.000000 0.000000 -0.000000 -0.000001 -0.000001 0.000001 -0.000000 0.000000 -0.000001 -0.000000 0.000000 -0.000001 -7.018230 -26.326418 -29.169303 -18.434950 23.003973 -47.374011 0.000007 -36.923258 0.000022 16.093150 11.349608 -7.118679 -0.177029 1.420196 9.009161 11.344535 25.640344 6.019599 0.000004 -0.000002 0.000000 -3.198565 -0.852986 -33.629335 0.847734 3.037264 -31.183328 -0.000001 -0.000000 -0.000000 1.140214 5.748957 -37.651974 0.749580 2.869069 -29.278309 -0.000002 -0.000001 0.000002 2.732490 7.774666 -37.979844 0.927441 3.165053 -32.656422 0.000000 0.000001 0.000001 4.900107 10.133002 -40.524865 0.999773 3.275004 -33.944408 -0.000000 -0.000001 -0.000001 0.000002 0.000002 -0.000001 16.511897 -29.414698 22.476727 18.832104 -26.862733 43.040516 0.000078 114.021334 -0.000086 28.272822 3.883407 26.345226 11.451386 0.436194 -2.643308 0.877847 -5.126594 -5.276866 -0.000001 0.000000 -0.000005 -1.053549 2.761295 11.566186 0.217388 -1.407673 17.556977 0.000002 0.000001 -0.000001 -0.570154 -0.209060 13.411043 0.509375 -2.119634 27.022388 -0.000002 0.000001 -0.000001 0.142057 -3.257680 15.622888 1.001903 -2.887841 38.260746 0.000000 0.000000 -0.000003 1.350208 -6.617249 20.280698 0.294741 -1.632053 20.472686 -0.000000 0.000002 -0.000001 -0.000001 0.000001 -0.000002 0.000000 -0.000001 -0.000000 0.000000 -0.000001 0.000000 0.000000 -0.000001 -0.000000 0.000000 -0.000001 -0.000000 0.000000 -0.000001 -0.000000 0.000000 -0.000001 0.000000 0.000000 -0.000001 -0.000000 0.000000 -0.000001 -0.000000 0.000000 -0.000001 -0.000000 0.000000 -0.000001 0.000000 0.000000 0.000000 -0.000000 0.000000 0.000000 -0.000000 0.000000 0.000000 -0.000000 
